<?xml version="1.0" standalone="no"?>
<!DOCTYPE svg PUBLIC "-//W3C//DTD SVG 20010904//EN"
 "http://www.w3.org/TR/2001/REC-SVG-20010904/DTD/svg10.dtd">
<svg version="1.0" xmlns="http://www.w3.org/2000/svg"
 width="260.000000pt" height="260.000000pt" viewBox="0 0 260.000000 260.000000"
 preserveAspectRatio="xMidYMid meet">
<metadata>
Created by potrace 1.11, written by Peter Selinger 2001-2013
</metadata>
<g transform="translate(0.000000,260.000000) scale(0.100000,-0.100000)"
fill="#000000" stroke="none">
<path d="M687 2311 c-6 -2 -40 -32 -74 -67 l-63 -63 0 -956 0 -955 693 0 692
1 65 67 65 68 1 692 0 692 -262 262 -263 262 -420 1 c-232 0 -427 -2 -434 -4z
m749 -348 c-1 -137 0 -255 2 -263 3 -14 37 -16 258 -15 161 0 258 -4 263 -10
4 -5 7 -271 7 -590 l-1 -580 -590 0 -590 0 -1 853 -1 852 327 0 327 0 -1 -247z
m447 -153 c-9 -10 -323 -5 -324 5 -3 26 -4 311 -2 317 2 4 77 -66 167 -155 90
-89 161 -164 159 -167z"/>
</g>
</svg>
