<?xml version="1.0" standalone="no"?>
<!DOCTYPE svg PUBLIC "-//W3C//DTD SVG 20010904//EN"
 "http://www.w3.org/TR/2001/REC-SVG-20010904/DTD/svg10.dtd">
<svg version="1.0" xmlns="http://www.w3.org/2000/svg"
 width="260.000000pt" height="260.000000pt" viewBox="0 0 260.000000 260.000000"
 preserveAspectRatio="xMidYMid meet">
<metadata>
Created by potrace 1.11, written by Peter Selinger 2001-2013
</metadata>
<g transform="translate(0.000000,260.000000) scale(0.100000,-0.100000)"
fill="#000000" stroke="none">
<path d="M422 2507 l-82 -82 0 -1213 0 -1212 883 0 882 0 78 78 77 77 0 890 0
890 -328 328 -327 327 -550 0 -550 0 -83 -83z m1048 -372 l0 -335 335 0 335 0
0 -760 0 -760 -755 0 -755 0 0 1095 0 1095 420 0 420 0 0 -335z m370 30 l225
-225 -228 0 -227 0 0 225 c0 124 1 225 3 225 1 0 103 -101 227 -225z"/>
</g>
</svg>
