<svg xmlns="http://www.w3.org/2000/svg" viewBox="0 0 600 600">
  <path d="M284.31 274.18c13.52 4.25 20.56 18.64 25.61 30.86 2.56 6.18 4.32 12.64 6.48 18.95.99 2.91 2.07 5.79 3.33 8.59.61 1.37 1.29 3.53 3.23 2.81 1.98-.73 1.65-3.31 1.95-4.94.6-3.29 2.48-6.41 5.82-7.42 1.47-.44 2.85-.57 3.2-2.32.54-2.64-1.26-5.86-2.15-8.24-2.41-6.43-4.9-12.85-8.04-18.96-3.33-6.47-7.4-12.53-11.56-18.49-3.5-5.01-7.58-8.79-13.98-9.08-6.12-.28-11.7 2.95-15.48 7.59-.4.49.3 1.21.71.71 3.63-4.46 8.89-7.56 14.77-7.3 7.23.31 10.98 5.46 14.74 10.93 3.58 5.21 7.05 10.51 9.94 16.14 2.96 5.76 5.34 11.79 7.62 17.85.78 2.08 2.94 5.86 2.49 8.15-.42 2.09-4.28 2.48-5.77 3.87-1.27 1.18-2.16 2.72-2.74 4.35-.31.89-.52 1.81-.64 2.74-.05.35 0 1.02-.12 1.31-1.69 3.9-2.61.89-3.1-.21-5.04-11.18-7.44-23.28-12.94-34.3-5.19-10.4-11.35-20.87-23.08-24.56-.64-.19-.9.78-.29.97z"/>
  <path d="M298.02 266.94c7.72 1.04 15.47 1.81 23.19 2.77 2.11.26 4.27.44 6.35.9 2.46.54 4.28 1.84 6.15 3.46 2.86 2.46 5.84 4.57 9.33 6.07 1.39.6 2.34.81 3.44 2.15.65.8 1.1 1.92 1.62 2.82 1.08 1.88 2.15 3.75 3.23 5.63 1.24 2.15 2.82 4.33 2.78 6.92-.04 2.69-1.54 5.04-3.21 7.04-5.49 6.58-12.45 12.17-19.55 16.89-.53.35-.03 1.22.5.86 6.04-4.01 11.67-8.61 16.74-13.79 4.28-4.37 8.48-9.43 5.19-15.63-1.8-3.4-3.84-6.7-5.75-10.03-.66-1.15-1.12-2.18-2.28-2.84-1.55-.88-3.35-1.34-4.93-2.21-3.14-1.71-5.56-4.17-8.41-6.25-2.62-1.91-5.61-2.26-8.74-2.67-8.45-1.1-16.93-1.91-25.38-3.05-.63-.09-.9.87-.27.96zM321.16 335.29c.64 0 .64-1 0-1-.65 0-.65 1 0 1z"/>
  <path d="M320.66 334.62c.17 5.22 6 8.66 10.08 10.86.57.31 1.07-.56.5-.86-3.7-2-9.42-5.23-9.58-10-.02-.64-1.02-.64-1 0zM268.8 332.43c.54 1.45 1.07 2.89 1.61 4.34.22.6 1.19.34.96-.27-.54-1.45-1.07-2.89-1.61-4.34-.22-.6-1.19-.34-.96.27zM270.59 330.44c1.91 5.6 3.31 11.99 6.9 16.81.37.5 1.2.06.86-.5-.11-.19-.22-.38-.34-.57-.33-.55-1.19-.05-.86.5.11.19.22.38.34.57.29-.17.58-.34.86-.5-3.54-4.74-4.92-11.04-6.8-16.57-.2-.61-1.17-.35-.96.26zM273.94 330.27l-.06-.03c.06.23.12.46.18.68.01-.03.03-.06.04-.08-.26.03-.52.07-.79.1.66.62 1 2.21 1.36 3.02.62 1.41 1.25 2.81 1.9 4.21 1.23 2.65 2.53 5.27 3.87 7.87.3.57 1.16.07.86-.5-1.41-2.74-2.77-5.5-4.06-8.29-.58-1.26-1.15-2.52-1.7-3.79-.43-.99-.71-2.47-1.51-3.23-.22-.2-.64-.2-.79.1-.01.03-.03.06-.04.08-.11.24-.07.55.18.68l.06.03c.56.31 1.07-.55.5-.85zM274.88 328.11c2.65 5.79 5.66 11.38 9.02 16.79.34.55 1.2.04.86-.5-3.36-5.4-6.37-11-9.02-16.79-.26-.59-1.13-.08-.86.5zM277.55 326.11c2.88 6.24 5.98 12.37 9.3 18.38.31.56 1.17.06.86-.5-3.32-6.02-6.42-12.14-9.3-18.38-.26-.59-1.13-.08-.86.5zM280.04 324.54c3.16 6.5 6.57 12.86 10.25 19.08.33.55 1.19.05.86-.5-3.67-6.22-7.09-12.58-10.25-19.08-.27-.59-1.14-.08-.86.5zM283.15 322.9c1.7 3.88 4.2 7.28 6.21 10.99 1.1 2.02 1.85 4.14 2.7 6.27.33.83.54 2 1.46 2.32.61.21.87-.76.27-.96-.66-.23-1.73-4.26-2.06-5.05-.66-1.57-1.46-3.08-2.32-4.55-1.85-3.16-3.9-6.17-5.38-9.53-.28-.58-1.14-.07-.88.51zM286.46 319.49c1.17 3.08 2.41 6.13 3.85 9.1 1.61 3.32 4.47 6.84 4.69 10.62.33-.04.65-.09.98-.13-.04-.2-.08-.4-.11-.6-.12-.63-1.08-.36-.96.27.04.2.08.4.11.6.1.55 1.01.43.98-.13-.19-3.28-2.14-5.92-3.63-8.75-1.91-3.63-3.49-7.4-4.95-11.23-.23-.61-1.19-.35-.96.25zM287.42 313.54c2.16 4.54 4.31 9.08 6.47 13.62 1.04 2.2 2.09 4.39 3.13 6.59.49 1.03 1.04 3.45 2.15 3.96.26.12.52.06.68-.18.03-.05.07-.1.1-.15.11-.17.08-.47-.08-.61-.03-.03-.07-.06-.1-.09-.49-.41-1.2.29-.71.71-.02-.12-.05-.25-.07-.37.23-.06.46-.12.68-.18-.53-.24-1.12-2.19-1.37-2.73-.42-.88-.83-1.76-1.25-2.64-.97-2.05-1.95-4.1-2.92-6.15-1.95-4.1-3.89-8.2-5.84-12.3-.28-.57-1.14-.06-.87.52zM289.09 310.73c1.43 4.11 3.14 8.1 5.19 11.93 2.32 4.34 4.94 8.5 6.57 13.17.21.6 1.18.34.96-.27-1.46-4.18-3.67-7.97-5.81-11.82-2.36-4.26-4.35-8.67-5.95-13.28-.21-.6-1.17-.34-.96.27zM290.43 307.3c5.26 8.09 9.66 16.68 13.14 25.68.23.59 1.2.34.96-.27-3.51-9.09-7.93-17.76-13.24-25.92-.35-.54-1.22-.03-.86.51zM294.05 305.57c3.9 8.34 7.64 16.74 11.23 25.21.25.59 1.11.08.86-.5-3.59-8.47-7.33-16.88-11.23-25.21-.27-.59-1.14-.08-.86.5zM295.69 302.15c.84 1.42 1.75 2.77 2.34 4.33.61 1.6 1.11 3.25 1.69 4.86.22.6 1.18.34.96-.27-.65-1.81-1.19-3.67-1.91-5.45-.57-1.41-1.44-2.67-2.21-3.98-.34-.55-1.2-.05-.87.51zM296.64 298.8c1.1 1.85 2.2 3.7 3.29 5.54.84 1.41 1.61 3.45 2.83 4.55.48.43 1.19-.27.71-.71-1.3-1.17-2.17-3.5-3.06-5l-2.91-4.89c-.33-.54-1.19-.04-.86.51zM302.45 302.76c.64 0 .64-1 0-1-.65 0-.65 1 0 1z"/>
  <path d="M297.02 294.26c2.78 4.2 5.26 8.63 7.79 12.98.32.56 1.19.05.86-.5-2.53-4.36-5.01-8.78-7.79-12.98-.35-.54-1.22-.04-.86.5zM298.76 292.15c3.05 4.57 5.45 9.54 8.49 14.11.36.53 1.22.03.86-.5-3.05-4.57-5.45-9.54-8.49-14.11-.35-.54-1.22-.04-.86.5zM297.98 285.92c3.39 6.62 7.16 13.13 11.22 19.36.35.54 1.22.04.86-.5-4.06-6.24-7.83-12.74-11.22-19.36-.29-.58-1.15-.07-.86.5zM302.01 316.55c1.55 3.41 3.11 6.81 4.66 10.22.27.58 1.13.08.86-.5-1.55-3.41-3.11-6.81-4.66-10.22-.27-.59-1.13-.08-.86.5zM305.83 315.81c.35 1.86 1 3.61 1.93 5.27.31.56 1.18.06.86-.5-.89-1.58-1.49-3.25-1.83-5.03-.12-.64-1.08-.37-.96.26zM286.46 319.49c0 .01.01.02.01.03.24.59 1.2.33.96-.27-1.1-2.78-2.3-5.75-4.12-8.13-.39-.51-1.25-.01-.86.5 1.77 2.32 2.95 5.2 4.02 7.89l.96-.27c0-.01-.01-.02-.01-.03-.23-.58-1.2-.32-.96.28zM279.24 310.05c1.59 2.69 3.03 5.46 4.32 8.31.26.59 1.13.08.86-.5-1.29-2.85-2.73-5.62-4.32-8.31-.32-.56-1.19-.06-.86.5zM275.66 309.43c.84 1.49 1.67 2.99 2.51 4.48.31.56 1.18.06.86-.5-.84-1.49-1.67-2.99-2.51-4.48-.31-.56-1.17-.06-.86.5zM271.8 308.79c.9 1.49 1.81 2.97 2.71 4.46.33.55 1.2.05.86-.5-.9-1.49-1.81-2.97-2.71-4.46-.33-.55-1.2-.05-.86.5zM269.28 309.04c.73 1.72 1.54 3.43 2.74 4.88.41.5 1.11-.21.71-.71-1.08-1.3-1.83-2.88-2.49-4.43-.24-.59-1.21-.33-.96.26zM284.75 346.44c.82 3.49-.06 6.91-2.47 9.57-.17.18-.17.39-.08.61 3.88 8.88 16.5 9.04 24.57 7.37 9.64-1.99 16.96-9.16 23.28-16.25.78-.87 1.51-1.9 2.39-2.66 2.32-2.01 4.02-.89 6.11.15 2.48 1.23 5.03 2.31 7.65 3.22 4.56 1.58 9.29 2.35 13.96 3.55 5.09 1.31 9.97 3.41 12.67 8.2 2.9 5.14 4.46 11.43 5.91 17.11 1.67 6.52 2.83 13.17 3.46 19.88.57 6.13.74 12.33 3.15 18.09.24.58 1.21.33.96-.27-2.56-6.12-2.57-12.74-3.25-19.23-.64-6.16-1.72-12.27-3.24-18.27-1.45-5.73-3.05-11.79-5.74-17.07-2.14-4.22-5.79-6.81-10.18-8.35-4.96-1.75-10.25-2.34-15.28-3.89-3-.92-5.93-2.06-8.75-3.42-1.93-.93-4.16-2.56-6.4-1.65-1.95.8-3.3 3.01-4.67 4.53-1.99 2.22-4.05 4.39-6.25 6.4-4.24 3.88-9.11 7.22-14.73 8.68-6.64 1.73-16.49 2.02-21.98-2.75-1-.87-2.68-2.35-2.37-3.78.17-.77 1.3-1.87 1.65-2.67 1.04-2.34 1.17-4.86.59-7.34-.14-.65-1.1-.39-.96.24zM303.52 313.52c.84 1 2.06 1.58 3.38 1.4 2.16-.3 3.34-2.28 5.7-2.27.64 0 .64-1 0-1-1.2 0-2.23.27-3.26.89-1.74 1.04-3.42 2.29-5.11.28-.42-.5-1.12.21-.71.7zM269.66 334.25c.89 3.76 2.14 7.39 3.74 10.91.27.58 1.13.08.86-.5-1.57-3.44-2.77-6.99-3.64-10.67-.15-.63-1.11-.37-.96.26z"/>
  <path d="M283.62 273.94c-1.79 4.29-6.04 6.7-8.26 10.69-.7 1.25-1.15 2.57-1.26 4-.09 1.15.22 2.4-.13 3.53-.42 1.33-1.81 2.33-2.78 3.24-1.82 1.7-3.64 3.4-5.45 5.11-.99.94-2.33 1.97-2.36 3.46-.06 2.77 4.22 4.26 6.13 5.36.56.32 1.06-.54.5-.86-1.4-.81-4.04-1.8-5.03-3.12-1.7-2.27 2.28-4.91 3.5-6.05 2.06-1.93 5.88-4.28 6.51-7.23.35-1.62-.09-3.24.35-4.87.57-2.13 2.05-3.92 3.52-5.5 2.2-2.36 4.46-4.47 5.72-7.5.25-.59-.71-.85-.96-.26z"/>
  <path d="M269.35 305.7c.47-.19.97-.23 1.45-.05.22.08.43.2.61.35.11.09.2.19.28.3.18.25.04.17.42.17-.64 0-.64 1 0 1 .49 0 .77-.4.76-.87-.01-.51-.39-.99-.75-1.32-.81-.73-2.02-.98-3.03-.56-.59.26-.34 1.22.26.98zM279.09 291.07c2.95-2.26 5.35 1.89 8.23 1.44.18-.03.29-.2.35-.35l.06-.15c.23-.6-.74-.86-.96-.27.12-.32-3.98-2.02-4.61-2.17-1.27-.3-2.52-.17-3.56.64-.52.38-.02 1.25.49.86zM280.1 293.38c-.16-.12-.31-.25-.47-.37.05.12.1.24.15.35-.01.1.23.08.32.11.15.05.29.13.44.19.33.11.66.15.99.02.59-.24.33-1.21-.27-.96-.37.16-.76-.19-1.13-.26-.3-.05-.63-.02-.89.13-.26.14-.44.39-.46.68-.04.42.32.6.61.83.5.38 1.21-.33.71-.72zM268.22 311.34c.38.98.89 1.86 1.54 2.68.4.5 1.1-.21.71-.71-.54-.68-.97-1.44-1.28-2.24-.23-.59-1.2-.33-.97.27zM276.88 319.91c-1.02-2.23-3.99-1.14-5.11.39-.67.91-.87 1.89-.83 3 .02.51.2 1.07.1 1.58-.09.48-.39.91-.58 1.36-.24.6-.39 1.08-.34 1.73.05.64 1.05.64 1 0-.11-1.41 1.04-2.52.93-3.98-.09-1.13-.19-2.02.48-3.02.65-.97 2.73-2.19 3.48-.55.27.57 1.14.07.87-.51z"/>
  <path d="M271.08 314.95c-.92.76-.8 2.07-.11 2.94.88 1.1 2.18 1.44 3.48 1.73.63.14.89-.82.27-.96-.8-.18-1.63-.32-2.32-.8-.68-.48-1.49-1.48-.62-2.2.5-.41-.21-1.12-.7-.71zM278.74 293.38c.02.71.49 1.34 1.21 1.47.63.11.9-.85.27-.96-.28-.05-.47-.2-.48-.5-.01-.65-1.01-.65-1-.01zM274.07 348.05c-7.71 1.74-15.79 2.98-23.33 5.38-6.13 1.95-8.83 7.52-11.28 13.06-1.47 3.33-1.88 6.71-2.59 10.24-.75 3.73-2.71 7.05-3.52 10.76-.72 3.3-.75 6.7-.95 10.06-.25 4.28-1.09 7.84-2.85 11.75-1.62 3.58-1.29 7.61-2.11 11.41-.82 3.79-1.7 7.45-1 11.33.11.63 1.08.36.96-.27-.87-4.81.94-9.36 1.62-14.06.31-2.14.14-4.36.79-6.44.69-2.2 1.98-4.12 2.59-6.36.99-3.67.98-7.51 1.21-11.28.15-2.54.4-5.1 1.14-7.55.58-1.93 1.46-3.75 2.14-5.65 1.62-4.56 1.6-9.39 3.62-13.86 1.55-3.43 3.28-7.54 6.25-10.01 3.5-2.91 9.08-3.38 13.38-4.35 4.73-1.07 9.47-2.14 14.2-3.21.63-.13.36-1.1-.27-.95z"/>
  <path d="M236.69 425.65c-6.31 2.62-11.3 6.35-13.35 13.11-1 3.3-1.3 6.79-1.45 10.22-.17 3.89-.31 7.71 1.11 11.4 2.25 5.86 7.51 11.81 12.87 15.04 2.89 1.74 5.95 1.8 9.09.62 1.67-.62 3.18-1.54 4.76-2.33 1.05-.52 2.02-.75 2.52-1.89.26-.58-.61-1.09-.86-.5-.48 1.09-2.21 1.56-3.19 2.08-1.65.88-3.33 1.77-5.17 2.2-4 .94-7.07-1.03-9.93-3.6-4.25-3.82-8.43-8.4-9.82-14.1-.74-3.03-.5-6.24-.36-9.32.14-2.96.42-5.94 1.18-8.82 1.81-6.76 6.62-10.56 12.86-13.15.59-.24.33-1.21-.26-.96z"/>
  <path d="M233.96 438.15c-5.23 3.4-6.14 9.72-6.42 15.49-.31 6.36.4 12.81 3.68 18.39.33.55 1.19.05.86-.5-2.91-4.94-3.72-10.58-3.6-16.24.12-5.8.63-12.79 5.98-16.27.54-.35.04-1.22-.5-.87zM252.31 471.57c-.19-1.83.49-2.82 1.34-4.45.58-1.11 1.23-2.19 1.72-3.35 1.28-3.09 1.83-6.53 2.29-9.83.09-.63-.88-.9-.96-.27-.48 3.48-1.02 7.31-2.59 10.5-.77 1.56-1.68 3.05-2.49 4.59-.65 1.25-.46 1.3-.3 2.79.05.66 1.05.66.99.02z"/>
  <path d="M249.95 418.69c-2.89.34-6.14.72-8.27 2.93-1.76 1.83-2.17 4.13-1.13 6.4.79 1.73 1.25 1.69.09 3.8-.31.56-.72 1.02-.97 1.64-.42 1.04-.61 2.23-.4 3.34.2 1.05.72 1.6 1.29 2.44 1 1.49.54 2.76 1.06 4.4.77 2.45 2.71 3.8 5.04 4.55 2.99.97 4.18 4.6 7.19 5.79 6.16 2.44 9.93-6.06 11.77-10.32.25-.58-.61-1.09-.86-.5-1.96 4.54-6.41 14.05-12.51 8.46-1.32-1.21-2.58-3.48-4.08-4.32-.22-.12-1.9-.23-1.88-.23-.73-.23-1.48-.67-2.04-1.18-1.29-1.16-1.84-2.64-1.88-4.32-.02-.72.17-1.38-.19-2.07-.37-.71-1.18-1.1-1.57-1.82-.82-1.52-.35-3.49.53-4.85.48-.74 1.16-1.24 1.33-2.14.42-2.2-2.04-3.77-1.38-6.13 1.07-3.83 5.56-4.48 8.89-4.87.6-.08.61-1.08-.03-1z"/>
  <path d="M250.22 419.75c3.96.55 7.94.77 11.94.58 2.04-.1 4.09-.33 6.14-.24 1.04.04 2.12.1 3.12.4 1.34.4 3.79 2.15 1.13 3.51-1.43.73-3.99.37-5.6.51-2.2.19-4.39.44-6.57.73-4.1.56-8.17 1.33-12.2 2.27-.63.15-.36 1.11.27.96 5.94-1.38 11.96-2.38 18.04-2.93 1.8-.16 8.02.43 8.64-2.31.74-3.28-4.82-4.08-6.82-4.16-2.81-.11-5.61.28-8.42.31-3.15.04-6.28-.18-9.4-.61-.64-.07-.91.89-.27.98z"/>
  <path d="M273.6 424.68c3.61.05 7.21-.05 10.82 0 .64.01.64-.99 0-1-3.61-.05-7.21.05-10.82 0-.64-.01-.64.99 0 1z"/>
  <path d="M277.86 424.98c2.28 4.23-11.57 5.77-13.48 6.14-4.22.81-8.21 2.33-11.95 4.42-.56.31-.06 1.18.5.86 3.03-1.69 6.23-3.02 9.6-3.86 2.84-.71 5.77-.97 8.63-1.59 2.59-.56 9.71-2.48 7.56-6.47-.3-.57-1.17-.07-.86.5z"/>
  <path d="M277.43 428.1c1.36 2.16 1.19 3.25-.51 3.26-.58.16-1.17.25-1.78.26-.64.1-1.23.21-1.85.4-1.32.4-2.6 1.06-3.85 1.65-3.22 1.53-6.38 3.18-9.48 4.94-.56.32-.06 1.18.5.86 2.56-1.45 5.16-2.84 7.81-4.14 1.46-.71 2.93-1.48 4.45-2.06 1.39-.52 2.76-.51 4.18-.8 2.97-.61 3.7-3.55 1.03-5.24-.54-.34-1.04.53-.5.87z"/>
  <path d="M277.06 431.84c-.16 3.08-4.36 4.9-6.49 6.47-2 1.48-3.88 3.1-5.76 4.73-.49.42.22 1.13.71.71 2.87-2.49 5.85-4.69 8.94-6.89 1.7-1.21 3.48-2.82 3.6-5.02.04-.64-.96-.64-1 0zM265.37 419.32c1.62-1.2 3.31-2.02 5.24-2.61.83-.25 1.66-.5 2.49-.74 2.57-.74 4.22 1.34 3.85 3.82-.09.63.87.9.96.27.34-2.26-.27-5.15-3.01-5.4-1.57-.15-3.4.73-4.87 1.19-1.9.6-3.56 1.42-5.16 2.61-.51.37-.02 1.24.5.86z"/>
  <path d="M273.23 421.12c3.31-.21 6.6-.24 9.92-.1.29.01.47-.24.5-.5 0-.02 0-.04.01-.07.07-.64-.93-.63-1 0 0 .02 0 .04-.01.07l.5-.5c-3.31-.14-6.61-.11-9.92.1-.64.04-.65 1.04 0 1zM322.75 427.8c.29 1.12.47 2.48.13 3.62-.23.78-.95 1.38-1.15 2.16-.35 1.37.2 2.48-.58 3.88-.76 1.36-1.84 2.53-3.14 3.39-1.57 1.04-3.23 1.45-4.42 2.99-.8 1.03-1.34 2.34-2.5 3.05-1.56.96-3.57.7-5.19.1-5.01-1.87-9.87-5.86-13.9-9.26-2.02-1.7-4.31-3.5-5.97-5.58-.54-.68-2.2-3.62-.59-4.1.98-.29 2.9.92 3.65 1.32.57.3 1.08-.56.5-.86-1.15-.6-3.87-2.24-5.22-1.13-1.42 1.18-.25 4.05.64 5.18 2.41 3.07 5.88 5.68 8.94 8.05 3.06 2.37 6.3 4.62 9.72 6.44 2.38 1.27 5.41 2.25 7.92.71 1.1-.67 1.7-1.76 2.42-2.78 1.33-1.89 3.03-2.2 4.81-3.46 2.2-1.55 3.6-3.72 4-6.33.43-2.76 1.64-4.72.87-7.64-.14-.63-1.1-.37-.94.25zM319.68 422.99c3.33 1.4 6.49 3.49 9.7 5.17 3.45 1.8 6.89 3.59 10.34 5.39 2.63 1.37 5.02 3.39 7.77 4.47 3.8 1.5 6.74 3.35 8.94 6.89.34.55 1.21.04.86-.5-1.72-2.76-4.09-5.01-7.06-6.39-1.51-.7-3.12-1.1-4.53-2.02-1.54-1-2.99-2.01-4.62-2.86-3.73-1.96-7.47-3.89-11.2-5.84-3.29-1.72-6.52-3.83-9.94-5.27-.58-.25-.84.72-.26.96z"/>
  <path d="M348.7 408.31c1.65 12.35 2.59 25.09 7.73 36.6.26.59 1.12.08.86-.5-5.06-11.34-5.97-23.94-7.59-36.1-.08-.63-1.08-.64-1 0z"/>
  <path d="M312.26 447.26c2.35 1.39 4.72 2.77 6.79 4.57 2.03 1.77 3.48 4 5.22 6.03 2.82 3.3 6.66 5.21 10.37 7.33 4.06 2.32 7.27 6 11.48 8.01 4.37 2.09 9.65 2.81 14.37 3.75 7.76 1.55 18.87 3.19 24.89-3.47 2.81-3.11 4.51-8.04 5.84-11.98 1.62-4.81 2.05-9.75 1.64-14.79-.47-5.7-1.77-11.29-2.72-16.92-.87-5.17-1.3-10.24-3.87-14.92-.31-.56-1.17-.06-.86.5 2.17 3.96 2.8 8.19 3.45 12.59.67 4.55 1.66 9.04 2.37 13.58.84 5.41 1.26 10.96 0 16.35-1.03 4.39-2.89 8.75-5.06 12.7-5.15 9.35-18.81 6.8-27.31 5-4.52-.96-9.68-1.62-13.69-4.05-3.42-2.07-6.18-5-9.67-7.02-4.68-2.71-8.71-5.03-12.1-9.37-2.98-3.81-6.49-6.32-10.62-8.76-.57-.32-1.07.55-.52.87zM283.95 419.92c-.18-.92-.69-2.93-.01-3.76 1.29-1.56 2.28-.17 3.32.12 1.67.48 3.2 1.11 4.95 1.31 3.44.4 7.05.04 10.48-.23 3.84-.3 8.08-.41 11.52 1.48 3.73 2.04 6.89 4.98 8.54 8.95.24.59 1.21.33.96-.27-1.71-4.09-4.83-7.19-8.67-9.36-3.99-2.25-8.55-2.12-13.01-1.75-2.4.2-4.81.27-7.21.27-3.29 0-5.64-.96-8.65-2.02-3.71-1.31-3.69 3.02-3.19 5.51.13.65 1.09.38.97-.25z"/>
  <path d="M284.39 419.22c-1.56.25-2.64 1.56-2.02 3.26.36.99 1.76 2.02 2.49 2.76 1.22 1.24 2.45 2.46 3.71 3.65 4.92 4.66 10.28 8.65 16.34 11.71.57.29 1.08-.57.5-.86-4.57-2.3-8.81-5.11-12.7-8.44-1.77-1.52-3.48-3.12-5.14-4.76-.87-.86-1.73-1.72-2.59-2.6-.38-.38-.86-.77-1.17-1.2-.64-.9-.38-2.36.84-2.56.64-.1.37-1.06-.26-.96z"/>
  <path d="M317.74 429.07c-4.66 4.17-11.63 1.07-16.7-.48-2.57-.79-5.16-1.52-7.65-2.54-1.09-.45-2.49-.9-2.86-2.19-1.03-3.64 7.78-1.14 9.03-.76 4.52 1.38 8.55 2.22 13.23.88.62-.18.35-1.14-.27-.96-4.06 1.16-7.74.69-11.69-.56-2.53-.8-5.27-1.65-7.96-1.54-2.06.08-4.18 1.23-3.16 3.56.36.83 1.01 1.41 1.78 1.85 3.04 1.75 6.88 2.49 10.2 3.51 5.28 1.62 11.96 4.24 16.77-.05.47-.44-.24-1.15-.72-.72z"/>
  <path d="M284.42 420.2c2.51-.11 4.32.57 6.37 1.97.53.37 1.03-.5.5-.86-2.19-1.5-4.19-2.23-6.87-2.11-.64.03-.64 1.03 0 1zM298.07 428.71c2.32 1.34 4.59 2.73 6.85 4.16.55.34 1.05-.52.5-.86-2.26-1.43-4.54-2.82-6.85-4.16-.55-.33-1.06.54-.5.86zM308.53 421.91c-3.98-.81-8.21-.54-12.26-.67-.64-.02-.64.98 0 1 3.95.13 8.11-.15 11.99.64.63.13.9-.84.27-.97zM251.32 471.44c-2.72 7.31-5.44 14.64-7.29 22.23-1.76 7.23-2.32 14.42-2.31 21.84.01 8.01-.21 16.02-.77 24.02-.28 3.94-.62 7.87-1.06 11.79-.44 3.91-1.04 7.88-3.63 11-.41.49.3 1.2.71.71 4.15-5.02 4.06-12.42 4.59-18.58.72-8.35 1.11-16.74 1.16-25.12.05-8.3.16-16.34 2.06-24.48 1.85-7.91 4.68-15.54 7.5-23.13.23-.62-.73-.88-.96-.28zM256.68 473.38c-3.94 12.91-1.52 26.08-.89 39.27.34 7.04.28 14.15-.97 21.1-.59 3.32-1.43 6.6-2.3 9.85-.4 1.48-.82 2.96-1.21 4.44-.2.78-.47 1.3-.05 2 .33.55 1.19.05.86-.5-.45-.75.9-4 1.12-4.79.4-1.48.8-2.96 1.17-4.45.75-3.01 1.39-6.04 1.82-9.12.86-6.3.85-12.69.54-19.03-.65-12.93-2.99-25.85.88-38.52.19-.6-.78-.87-.97-.25zM322.48 485.39c-3.19-.61-6.19 1.08-8.87 2.65-2.99 1.76-5.4 4-7.4 6.82-2.47 3.48-4.87 6.82-8.01 9.75-3.14 2.93-6.6 5.49-10.12 7.95-.52.37-.02 1.23.5.86 5.69-3.98 11.31-8.26 15.54-13.83 2.01-2.65 3.6-5.62 6.09-7.88 2.83-2.58 8.04-6.12 12-5.36.63.12.9-.84.27-.96zM345.89 489.4c.8 6.36 5.27 10.91 9.31 15.53 2.7 3.09 5.19 6.35 7.57 9.69 2.29 3.22 4.54 6.72 5.06 10.72.51 3.93-.7 7.72-4 10.06-1.82 1.3-3.58 2.45-3.44 4.94.09 1.65 1.07 3.09 1.4 4.68.47 2.23-.32 4.22-.39 6.41-.04 1.23.35 1.98.97 3.01 1.22 2.05 1.91 3.64 1.4 6.1-.13.63.83.9.96.27.67-3.25-.5-4.6-1.85-7.42-.9-1.88-.1-3.81.04-5.76.14-1.92-.33-3.4-.95-5.19-.44-1.28-1-2.61-.19-4 .57-.98 1.65-1.55 2.56-2.18.92-.64 1.75-1.32 2.43-2.22 1.67-2.18 2.3-5.03 2.16-7.73-.35-6.62-5.21-12.28-9.07-17.28-4.64-6.01-11.97-11.67-12.97-19.64-.08-.62-1.08-.63-1 .01z"/>
  <path d="M364.81 477.59c-.91 8.26.66 16.4 2.15 24.49 1.62 8.76 3.41 17.69 1 26.47-.17.62.79.89.96.27 4.65-16.97-5.01-34.07-3.12-51.23.08-.64-.92-.63-.99 0zM236.37 563.41c1.49 3.26 4.72 4.78 7.86 6.11 4.28 1.81 8.67 3.35 13.14 4.6 9.08 2.55 18.48 3.93 27.9 4.11 10.12.2 20.21-.58 30.34-.15 9.72.41 18.84-.87 28.05-4.06 4.71-1.63 9.48-3.49 13.93-5.77 3.2-1.64 6.16-3.83 7.14-7.44.17-.62-.8-.89-.96-.27-1.04 3.84-4.57 5.88-7.95 7.46-4.04 1.9-8.2 3.59-12.42 5.05-8.6 2.98-17.29 4.42-26.39 4.08-18.11-.69-36.15 1.45-54.02-2.63-4.64-1.06-9.2-2.41-13.67-4.05-4.18-1.54-10.08-3.14-12.09-7.56-.26-.57-1.13-.06-.86.52z"/>
  <path d="M236 562.8c-.76 3.23-3.39 7.79-.22 10.35 3.94 3.19 9.59 4.9 14.36 6.35 10.96 3.32 21.99 6.25 33.51 6.35 3.31.03 6.45.34 9.61 1.34 2.61.82 5.07 1.57 7.82 1.68 5.65.21 11.59-.42 17.18-1.23 5.86-.85 11.42-2.69 16.97-4.7 5.29-1.92 10.59-3.85 15.55-6.55 5.09-2.76 9.83-6.17 14.06-10.12.89-.83 3.14-2.35 2.94-3.86-.2-1.47-2.25-1.95-3.4-2.23-.63-.15-.89.81-.27.96 1.14.27 2.92.51 2.19 2.29-.29.7-1.6 1.6-2.16 2.12-1.86 1.73-3.82 3.36-5.87 4.87-3.58 2.65-7.43 4.94-11.46 6.84-4.82 2.27-9.89 4.03-14.92 5.79-4.54 1.59-9.13 2.91-13.9 3.6-5.1.74-10.38 1.17-15.53 1.21-4.98.04-9.23-2.29-14.09-2.82-5.27-.58-10.52-.17-15.79-1-4.77-.75-9.46-1.96-14.11-3.24-5.02-1.37-10.11-2.68-14.93-4.67-2.36-.98-5.24-2.12-7.18-3.84-2.24-1.99.03-6.74.61-9.23.14-.62-.83-.89-.97-.26z"/>
  <path d="M235.12 572.55c5.45 8.52 1.97 18.48 2.51 27.81.04.64 1.04.64 1 0-.56-9.53 2.9-19.64-2.65-28.31-.34-.55-1.21-.05-.86.5zM365.51 564.56c-4.51 10.88-5.83 22.67-6.83 34.3-.06.64.95.64 1 0 1-11.55 2.32-23.24 6.8-34.04.24-.59-.72-.85-.97-.26zM258.31 406.12c.64 0 .64-1 0-1-.65 0-.65 1 0 1z"/>
  <path d="M257.65 405.6c-.57 4.65-.72 9.3-.46 13.98.04.64 1.04.64 1 0-.26-4.68-.11-9.33.46-13.98.08-.64-.92-.63-1 0z"/>
  <g>
    <path d="M173.11 105.81c-1.38 1.2-1.85 2.79-2.18 4.55-.42 2.25-.86 4.52-1.06 6.8-.51 5.95-.23 11.94-.74 17.9-1.05 12.33-3.43 24.49-5.79 36.62-.07.38.23.7.62.62 4.23-.9 8.48-.07 12.75-.02 3.24.03 6.49-.23 9.68-.82 6.03-1.1 11.91-3.4 16.79-7.15 4.62-3.55 9.25-8.69 7.92-14.93-1.23-5.78-4.12-12.19-9.25-15.43v.86c8.73-4.62 13.89-16.3 6.4-24.48-4.11-4.49-10.59-4.27-16.19-4.72-3.74-.3-7.49-.62-11.24-.91-2.66-.2-5.2-.26-7.61 1.04-.57.31-.06 1.17.5.86 2.37-1.29 4.99-1.07 7.59-.86 2.77.22 5.54.45 8.3.67 5.39.43 12.33-.11 16.74 3.51 3.72 3.05 5.22 8.21 4.19 12.85-1.1 4.95-4.83 8.86-9.21 11.17-.34.18-.3.67 0 .86 2.67 1.69 4.54 4.13 5.93 6.94 1.38 2.77 2.92 6.31 3.1 9.44.37 6.5-6.48 11.93-11.55 14.82-5.22 2.98-11.18 4.57-17.14 5.09-5.97.52-12.12-1.01-18 .25l.62.62c2.14-10.96 4.27-21.93 5.46-33.04.59-5.57.89-11.15.94-16.75.03-2.84.16-5.61.67-8.41.44-2.43.47-5.5 2.46-7.23.5-.43-.21-1.14-.7-.72z"/>
    <path d="M190.42 115.69c-4.35-.26-6.27 2.99-6.29 7.02-.01 1.56.09 3.12.14 4.68.02.79-.17 1.97.18 2.73.73 1.63 3.63 1.14 5.03 1.12 4.45-.05 8.45-2.69 8.74-7.45.27-4.48-3.51-7.93-7.8-8.1-.64-.03-.64.97 0 1 3.77.15 7.03 3.18 6.8 7.09-.27 4.44-4.15 6.47-8.15 6.46-1.99-.01-3.44-.05-3.79-2.41-.24-1.63-.16-3.48-.15-5.12.02-3.45 1.57-6.24 5.29-6.02.65.04.64-.96 0-1zM187.04 139.8c-2.5 0-4.61.45-6.1 2.61-1.46 2.12-1.98 5.01-2.33 7.51-.33 2.36-.47 5.57 1.36 7.42 1.57 1.6 4.08 1.36 6.09 1.02 4.91-.81 10.94-3.58 11-9.38.06-5.24-5.19-9-10.02-9.18-.64-.02-.64.98 0 1 4.15.15 8.83 3.29 9.03 7.81.22 4.87-4.61 7.55-8.69 8.48-1.99.45-5.01 1.18-6.7-.46-1.87-1.82-1.29-5.49-.89-7.7.3-1.65.65-3.38 1.38-4.9 1.19-2.49 3.15-3.23 5.87-3.23.65 0 .65-1 0-1zM185.45 267.16c-2.5 0-4.61.45-6.1 2.61-1.46 2.12-1.98 5.01-2.33 7.51-.33 2.36-.47 5.57 1.36 7.42 1.57 1.6 4.08 1.36 6.09 1.02 4.91-.81 10.94-3.58 11-9.38.06-5.23-5.2-9-10.02-9.18-.64-.02-.64.98 0 1 4.15.15 8.83 3.29 9.03 7.81.22 4.87-4.61 7.55-8.69 8.48-1.99.45-5.01 1.18-6.7-.46-1.87-1.82-1.29-5.49-.89-7.7.3-1.65.65-3.38 1.38-4.9 1.19-2.49 3.15-3.23 5.87-3.23.64 0 .64-1 0-1zM247.97 99.9c-5.67.2-10.21 2.04-14.62 5.57-5.33 4.26-10.84 9.41-13.77 15.71-1.41 3.04-1.74 6.39-1.89 9.69-.2 4.23-.1 8.48.31 12.7.65 6.71 1.51 14.44 5.81 19.91 7.75 9.89 24.42 10.02 33.74 2.63 6.07-4.82 10.16-11.33 13.72-18.12 1.65-3.15 3.05-6.42 3.53-9.97.55-4.05.06-8.14-.44-12.17-.91-7.42-2.38-14.48-8.1-19.73-4.94-4.53-11.61-6.88-18.29-6.22-.63.06-.64 1.06 0 1 5.64-.55 11.21 1.05 15.76 4.42 5.35 3.96 7.95 9.67 9.02 16.11 1.18 7.08 2.32 14.8-.31 21.67-2.42 6.32-6.35 12.9-10.9 17.91-4.9 5.39-10.61 8.94-18.03 9.22-5.87.21-12.24-1.15-16.77-5.09-5.33-4.64-6.58-12.1-7.44-18.76-.85-6.61-1.32-13.82-.15-20.42 1.27-7.14 7.03-13.11 12.35-17.66 5.02-4.29 9.69-7.15 16.46-7.39.66-.03.66-1.03.01-1.01z"/>
    <path d="M248.33 110.47c-3.76.01-6.13 1.67-8.86 4.05-3.06 2.66-5.39 5.5-6.97 9.28-3.48 8.36-3.35 19.25 1.61 27.04 3.88 6.09 12.59 9.66 18.28 3.68 2.88-3.03 4.16-7.4 5.02-11.39.98-4.55 1.26-9.27.62-13.88-.58-4.17-1.51-8.52-3.15-12.4-1.21-2.86-3.08-5.9-6.42-6.36-.63-.09-.9.88-.27.96 5.68.78 7.16 9.38 8.11 13.92 1.61 7.7 1.37 15.68-1.47 23.1-1.39 3.62-3.79 7.15-7.81 7.99-4.07.85-8.17-1.29-10.74-4.34-5.47-6.48-6.19-16.69-4.01-24.57 1.13-4.08 3.11-8 6.26-10.9 2.91-2.69 5.63-5.18 9.8-5.19.64.01.65-.99 0-.99zM298.61 101.79c-2.05-.08-4.06.13-6.1.24-1.85.11-3.78.11-5.42 1.13-3.1 1.93-3.56 6.14-4.18 9.38-2.07 10.85-4.08 21.72-6.1 32.59-1 5.37-1.99 10.74-2.96 16.11-.44 2.42-1.13 4.9-1.46 7.32-.11.78-.07 1.31.65 1.75 1.14.69 3.37-.06 4.53-.26 2.91-.53 5.9-.9 8.77-1.59 3.96-.95 2.42-5.66 2.45-8.81.1-11.77 2.6-23.41 7.16-34.26-.33-.04-.65-.09-.98-.13.21 6.2 2.96 11.84 5.32 17.46 2.67 6.35 5.33 12.69 8 19.04.66 1.56 1.11 3.45 2.76 4.22 1.21.56 2.74.65 4.03.92 1.49.31 3.13.91 4.65.94 1.47.03 2.24-.37 2.82-1.74 1.2-2.87 1.57-6.36 2.29-9.38 3.06-12.85 6.76-25.75 8.53-38.86.43-3.17.72-6.35.8-9.55.04-1.64.66-4.34-.82-5.5-1.14-.89-3.6-1.07-5-1.18-1.85-.14-3.82.09-5.29 1.33-2.04 1.72-2.97 5.05-3.77 7.49-.97 2.99-1.62 6.08-2.13 9.18-1.12 6.85-1.57 13.8-3.05 20.59h.96c-3.9-13.29-9.27-26.09-16.02-38.19-.31-.56-1.18-.06-.86.5 6.71 12.03 12.04 24.74 15.92 37.95.13.45.86.5.96 0 2.04-9.29 2.06-18.97 4.68-28.14.68-2.37 1.46-4.88 2.7-7.01 1.73-2.97 4.8-3.02 7.83-2.41 1.1.22 2.37.33 2.88 1.53.39.93.03 2.82.01 3.84-.06 2.56-.26 5.11-.56 7.65-1.3 10.98-4.26 21.73-6.82 32.46-1.24 5.2-2.46 10.41-3.72 15.61-.09.38-.15 1.22-.38 1.53-.71.95-2.5 1.03-3.47.99-1.24-.05-2.61-.54-3.83-.8-1.62-.34-3.06-.36-4.14-1.9-.88-1.26-1.35-3.18-1.95-4.61-2.35-5.59-4.7-11.18-7.05-16.78-2.32-5.52-5.07-11.1-5.28-17.19-.02-.6-.77-.63-.98-.13-3.19 7.58-5.38 15.52-6.44 23.68-.55 4.2-.8 8.43-.75 12.66.03 2.26.71 5.57-2.2 6.12-2.27.44-4.55.83-6.82 1.24-1.07.19-2.71.79-3.8.67-.69-.08-.52.22-1.1-.45-.64-.75-.24-.54-.18-1.37.15-2.19.82-4.47 1.22-6.64.83-4.56 1.67-9.11 2.51-13.67 1.68-9.07 3.38-18.13 5.08-27.2.46-2.45.92-4.89 1.39-7.34.41-2.13.68-4.54 1.72-6.49 2.22-4.14 8.87-3.69 13.01-3.53.62.01.62-.99-.02-1.01zM354.21 102.89c-2.75.08-6.7-.6-8.9 1.38-2.68 2.41-3.55 6.87-4.02 10.25-.63 4.61-.79 9.21-1.71 13.79-.96 4.79-1.89 9.57-2.68 14.38-.84 5.1-1.71 10.19-2.52 15.29-.44 2.8-1.72 7.62.03 10.14.73 1.05 1.88 1.19 3.06 1.26 2.53.15 5.09-.05 7.62-.1 5.3-.09 10.37.72 15.61 1.41 3.39.45 8.92 1.61 11.42-1.53 2.59-3.24 2.26-9.14 1.78-12.95-.04-.29-.2-.47-.5-.5-2.93-.29-5.87-.41-8.81-.29-2.89.12-5.84.82-8.73.71-3.86-.15-5.29-3.15-5.08-6.66.18-2.94 1.15-9.11 4.56-10.07 2.57-.72 6.01-.04 8.61.29 2.84.36 6.12 1.45 8.99 1.26 1.43-.1 2.01-.73 2.45-2.06.83-2.49 1.2-5.59 1.11-8.21-.16-4.35-4.08-4.2-7.56-4.33-2.8-.11-5.61-.08-8.41.01-1.93.07-4.89.52-4.59-2.86.15-1.68 1.43-3.88 2.08-5.35.92-2.1 2.25-3.17 4.62-3.44 1.44-.16 3.13.11 4.56.27 3.3.38 6.56 1.1 9.85 1.57 1.29.18 2.99.52 4.1-.38 1.45-1.18.86-3.75.84-5.35-.02-2 .52-4.99-.68-6.77-1.19-1.75-3.61-1.72-5.48-1.8-7.23-.29-14.45-.03-21.62.64-.64.06-.64 1.06 0 1 5.22-.49 10.46-.75 15.7-.74 2.5 0 5.06-.06 7.55.2 2.05.21 3.14.82 3.46 3.29.17 1.35.04 2.83.05 4.2.02 1.68.57 4.17-1.7 4.93-.92.31-2.36-.22-3.34-.37-2.57-.41-5.13-.92-7.71-1.27-2.68-.36-7.7-1.52-9.75.95-1.16 1.4-1.77 3.51-2.43 5.2-.56 1.43-1.89 3.69-1.2 5.29 1.13 2.61 5.42 1.79 7.53 1.74 2.34-.05 4.67-.03 7.01.07 1.13.05 2.41-.05 3.5.25 2.51.69 2.68 2.68 2.55 4.88-.12 2-.17 7.13-2.84 7.42-2.32.25-5.33-.78-7.66-1.1-2.17-.29-4.36-.53-6.55-.56-1.52-.02-3.37-.14-4.69.75-2.71 1.84-3.63 7.04-3.88 10.02-.24 2.85.26 6.15 3.13 7.5 3.4 1.59 8.09.03 11.65-.12 2.17-.09 4.83-.38 6.96.12 1.58.37 1.54.84 1.6 2.46.05 1.24 0 2.5-.13 3.73-.35 3.33-1.1 6.97-5.05 7.36-2.61.26-5.34-.13-7.92-.49-4.69-.66-9.26-1.39-14.01-1.34-2.54.03-5.08.18-7.62.13-.53-.01-1.62.1-2.04-.11-.62-.31-1.5-2.28-1.62-2.9-.24-1.26.02-2.83.16-4.1 1.21-11.63 3.92-23.14 5.99-34.63.87-4.85.76-9.86 1.83-14.67.6-2.71 1.63-6.37 4.41-7.46 2.11-.83 4.78-.57 7.06-.64.64-.01.65-1.01 0-.99zM403.18 102.95h1.05c.65 0 .64-.98 0-1-3.86-.14-7.4 1.79-11.27 1.4-.21-.02-.43.17-.48.37-1.94 7.62 2.77 14.56 5.77 21.21 1.87 4.15 2.65 8.51 3.6 12.93 1.09 5.05 1.39 9.57.22 14.64-1.05 4.54-2.85 9.35-2.5 14.09.13 1.79 1.08 3.02 2.82 3.53 3.57 1.04 10.16-.55 12.51-3.59 1.88-2.43 1.87-6.11 2.1-9.02.36-4.57.52-9.65 2.67-13.79.93-1.79 2.14-3.41 3.24-5.09 1.45-2.2 2.66-4.54 3.98-6.83 2.15-3.73 4.8-6.51 7.96-9.37 3.93-3.56 9.66-9.51 6.45-15.35-1.18-2.15-3.58-2.84-5.87-3.03-2.68-.23-6.81-.67-9.02 1.23-1.53 1.32-2.61 3.47-3.71 5.13-1.49 2.26-2.96 4.62-4 7.13-.6 1.44-.92 2.97-1.29 4.48-.34 1.39-.82 5.19-2.23 5.91-.61.31-.26.14-.65-.55-.29-.51-.43-1.1-.58-1.65-.29-1.07-.48-2.18-.72-3.26-.44-1.96-1.18-3.58-2.21-5.31-1.32-2.22-2.93-4.27-4.2-6.52-1.46-2.58-2.01-5.24-2.1-8.18-.02-.64-1.02-.64-1 0 .17 5.7 2.79 9.4 5.75 14.08 1.54 2.44 2.48 4.71 3.08 7.51.39 1.85.76 3.75 2.03 5.22.19.22.51.17.71 0 1.73-1.48 2.33-3.91 2.87-6.03.81-3.15 1.63-5.96 3.26-8.83.97-1.71 2.06-3.36 3.16-4.99 1.04-1.53 2.03-3.53 3.9-4.12 2.64-.83 7.45-.73 9.97.46 3.16 1.5 3.04 5.71 1.88 8.5-1.17 2.82-3.48 5-5.69 7.02-2.01 1.83-4.14 3.59-5.83 5.74-2.35 3-3.91 6.52-5.9 9.76-1.76 2.87-3.99 5.51-5.11 8.72-1.12 3.2-1.25 6.74-1.63 10.09-.32 2.85-.22 5.87-1.19 8.61-.89 2.52-3.09 3.49-5.48 4.27-2.08.68-4.89 1.42-7.04.63-3.5-1.29-1.63-7.2-1.03-9.87.81-3.63 2-7.21 2.42-10.92.37-3.31-.19-6.64-.86-9.87-.77-3.7-1.35-7.63-2.69-11.17-1.26-3.34-3-6.46-4.49-9.69-1.65-3.59-3.18-7.52-2.74-11.54.17-1.54.52-1.51 1.96-1.6.72-.05 1.44-.16 2.15-.3 2.37-.47 4.6-1.24 7.05-1.16v-1h-1.05c-.64-.03-.64.97 0 .97zM143.09 86.99c-4.48 31.8-1.85 63.98-2.99 95.95-.09 2.41-.46 5.83 1.95 7.33 1.13.7 2.64.69 3.92.74 2.42.09 4.83-.08 7.25.04.64.03.64-.97 0-1-2.42-.12-4.83.06-7.25-.04-2.01-.08-3.88-.18-4.66-2.39-.3-.83-.27-1.77-.28-2.64-.05-4.47.28-8.96.33-13.43.11-9.32.02-18.64-.01-27.96-.06-18.8.07-37.68 2.7-56.33.09-.64-.87-.91-.96-.27z"/>
    <path d="M153.22 191.04l121.89-1.44c40.47-.48 80.96-1.43 121.43-1.19 22.71.13 45.42.95 68 3.44.28.03.48-.26.5-.5.31-3.68.4-7.37.63-11.05.04-.64-.96-.64-1 0-.14 2.22-.24 4.44-.35 6.66-.04.85-.09 1.7-.14 2.55-.12 1.76-1.05 1.19-2.59 1.03-5.24-.55-10.48-1.01-15.73-1.39-10.5-.77-21.02-1.22-31.55-1.47-20.76-.5-41.52-.22-62.27.02-42.46.5-84.92 1-127.39 1.51-23.81.28-47.62.56-71.44.84-.63 0-.63 1 .01.99z"/>
    <path d="M465.68 180.3c2.04-20.67.88-41.39-.17-62.07-.27-5.32-.69-10.67.08-15.96.68-4.7 2.13-9.43 1.86-14.23-.17-3-1.41-4.94-4.48-5.49-4.03-.73-8.14-1.72-12.21-2.17-.64-.07-.63.93 0 1 2.46.27 4.8.93 7.21 1.44 1.75.37 3.7.32 5.39.82 5.19 1.55 2.82 9.79 2.1 13.67-.83 4.45-1.4 8.74-1.3 13.29.1 4.51.42 9.03.65 13.54.96 18.72 1.72 37.47-.13 56.17-.07.63.93.63 1-.01z"/>
    <path d="M143.7 87.6c19.63-3.94 39.71-4.13 59.65-3.52 20 .61 39.99 1.55 60 1.84 40.17.58 80.37-.37 120.47-2.85 11.2-.69 22.39-1.51 33.57-2.43 11.08-.91 22.28-1.74 33.23.71.63.14.89-.82.27-.96-9.31-2.08-18.84-1.85-28.3-1.15-10.12.74-20.22 1.62-30.35 2.3-20.29 1.36-40.61 2.33-60.94 2.91-40.58 1.16-81.08.35-121.63-1.15-22.12-.82-44.42-1.04-66.23 3.34-.63.12-.37 1.09.26.96zM140.8 208.09c-.46 29.34-.17 58.71.87 88.04.12 3.41.25 6.81.4 10.22.11 2.51-.05 5.71 1.92 7.61 1.48 1.43 3.61 1.61 5.57 1.64 4.22.06 8.46-.12 12.68-.19 16.3-.25 32.59-.49 48.89-.74 18.62-.28 37.25-.56 55.87-.85.64-.01.64-1.01 0-1-31.26.47-62.52.95-93.79 1.42-7.87.12-15.78.47-23.65.35-1.66-.02-3.58-.1-4.86-1.34-1.58-1.54-1.5-4.03-1.59-6.07-.16-3.39-.28-6.79-.41-10.19-.51-14.03-.82-28.08-.98-42.12-.18-15.59-.17-31.19.08-46.78.01-.64-.99-.64-1 0z"/>
    <path d="M141.3 208.59c58.12-1.61 116.26-3.01 174.36-5.07 14.42-.51 28.73-1.93 43.12-2.91 14.31-.98 28.26.37 42.46 2.06 13.53 1.61 27.3 3.05 40.83.7 4.8-.84 10.33-2.61 15.12-.78 3.43 1.31 4.16 4.41 3.83 7.83-.33 3.51-.82 7-1.16 10.51-3.04 31.9-1.65 64.16 3.98 95.7l.48-.63c-41.14-4.42-82.67-4.5-123.83-.23-.63.07-.64 1.07 0 1 41.15-4.27 82.69-4.19 123.83.23.35.04.53-.35.48-.63-5.22-29.22-6.77-59.07-4.52-88.67.27-3.54.59-7.08.97-10.62.34-3.23 1.38-7.06.75-10.28-.73-3.69-3.95-5.41-7.44-5.8-5.49-.62-10.94 1.27-16.33 1.95-7.12.89-14.32.81-21.47.3-14.18-1-28.21-3.65-42.44-4.04-14.67-.4-29.28 1.8-43.9 2.65-29.68 1.72-59.48 1.96-89.2 2.83-33.31.98-66.62 1.98-99.94 2.91-.62.01-.63 1.01.02.99zM171.44 227.5c.42 4.93-.9 9.9-2.21 14.61-1.49 5.35-2.47 10.8-3.2 16.3-1.56 11.7-2.25 23.56-5.82 34.88-.19.62.77.88.96.27 3.5-11.11 4.23-22.74 5.73-34.23.78-5.97 1.88-11.82 3.47-17.62 1.26-4.57 2.47-9.43 2.05-14.21-.03-.63-1.03-.64-.98 0z"/>
    <path d="M171.94 228c6.2-.42 12.31.89 18.54.44 6.34-.45 12.12.62 16.55 5.5 3.83 4.21 5.35 10.03 4.03 15.57-1.24 5.19-5.05 8.57-9.74 10.72-.41.19-.26.8.12.91 4.24 1.31 4.63 7.57 5.19 11.26 1.06 7.05.73 14.82-5.9 19.05-5.37 3.43-12.24 3.89-18.43 4.26-7.35.45-14.66.05-21.95-.94.12.21.23.41.35.62.14-.62.3-1.22.48-1.83.19-.62-.77-.88-.96-.27-.19.61-.34 1.21-.48 1.83-.05.24.07.58.35.62 8.47 1.15 16.94 1.48 25.47.74 6.42-.56 13.78-1.55 18.49-6.43 4.9-5.08 4.39-12.4 3.4-18.85-.6-3.91-1.3-9.64-5.74-11.02.04.3.08.61.12.91 4.58-2.1 8.44-5.41 9.94-10.36 1.63-5.35.62-11.22-2.63-15.75-3.32-4.63-8.39-7.38-14.06-7.65-3.93-.19-7.82.53-11.76.25-3.81-.27-7.54-.83-11.37-.57-.65.04-.65 1.04-.01.99z"/>
    <path d="M184.13 254.27c-.4-2.5-.82-5.05-.86-7.59-.03-2.08.25-4.65 1.9-6.15 2-1.81 5.04-1.14 7.29-.3 4.44 1.66 7.3 5.92 4.4 10.4-2.91 4.48-8.44 4-13.05 3.32-.56-.08-.8.78-.24.86 5.04.74 10.94 1.14 14.05-3.73 2.6-4.06 1.1-8.64-3.03-10.86-3.86-2.08-9.63-2.95-11.56 2.01-1.48 3.78-.39 8.41.23 12.28.1.57.95.33.87-.24zM252.33 236.28c-5.78-3.76-14.39 2.58-17.22 7.57-2.31 4.07-3.55 9.09-4.62 13.6-1.05 4.42-1.63 9.23-.39 13.68 1.85 6.6 8.74 12.94 15.95 10.44 7.86-2.72 10.62-12.51 11.28-19.89.46-5.16.36-10.58-.2-15.73-.4-3.77-1.45-7.53-4.8-9.67-.54-.35-1.05.52-.5.86 3.13 2 4 5.68 4.34 9.15.34 3.37.41 6.81.39 10.2-.04 7.31-1.05 15.79-6.45 21.26-6.27 6.34-15.06 2.45-18.31-4.89-3.29-7.43-.3-16.19 2.08-23.44 1.38-4.22 3.29-7.53 6.94-10.15 3.03-2.17 7.48-4.43 11-2.13.55.35 1.05-.51.51-.86z"/>
    <path d="M253.54 223.46c-5.94-1.39-11.9-1.05-17.35 1.84-5.71 3.02-10.57 7.93-13.8 13.48-3.51 6.02-5.39 12.88-6.3 19.75-.87 6.54-.88 13.49 1.77 19.65 4.93 11.45 21.59 20.85 33.36 14.3 5.92-3.3 10.19-9.34 13.31-15.2 3.27-6.15 5.36-12.9 6.16-19.82.89-7.69.51-16.4-3.18-23.38-3.11-5.88-7.82-8.62-13.97-10.62-.61-.2-.88.77-.27.96 5.48 1.79 9.72 4.03 12.77 9.1 3.36 5.58 4.13 12.51 3.99 18.91-.29 12.64-5.09 26.16-14.16 35.2-5.21 5.19-11.75 7.28-18.93 5.14-6.37-1.91-12.85-6.18-16.49-11.82-3.62-5.61-4.24-12.5-3.73-19.01.48-6.28 1.85-12.63 4.38-18.41 2.81-6.42 7.28-11.98 13.13-15.88 5.81-3.88 12.28-4.79 19.04-3.21.63.13.9-.83.27-.98zM285.38 231.21c-2.79 16.15-4.83 32.42-6.64 48.7-.07.64.93.63 1 0 1.8-16.19 3.83-32.38 6.6-48.44.11-.63-.85-.9-.96-.26zM292.28 266.93c.32-4.22.63-8.43.95-12.65.14-1.86.25-3.73.42-5.59.12-1.29.01-3.7 1.27-1.48 1.73 3.04 2.85 6.61 4.35 9.78 1.69 3.56 3.46 7.08 5.28 10.57.3.57 1.16.07.86-.5-2.38-4.56-4.67-9.17-6.8-13.85-1.1-2.41-1.9-5.12-3.19-7.42-.28-.5-.69-1.22-1.37-1.13-1.53.19-1.38 3.71-1.46 4.75-.45 5.84-.88 11.68-1.31 17.52-.05.64.95.64 1 0z"/>
    <path d="M286.31 231.58c1.56-4.1 6.09-6.78 10.46-5.93 4.81.94 6.41 7.33 8.23 11.25 4.19 9.02 8.09 18.16 11.73 27.41.19.47 1.05.48.98-.13-.83-7.57-.13-15.15 1.68-22.53.86-3.51 1.93-7 3.24-10.37.77-1.98 1.77-4.18 3.62-5.39 2.31-1.52 5.18-1.1 6.6 1.35 2.07 3.59-.01 7.91-1.12 11.47-1.07 3.45-1.95 6.95-2.69 10.48-1.42 6.85-2.27 13.8-2.6 20.79-.03.64.97.64 1 0 .44-9.31 1.8-18.59 4.26-27.58 1.31-4.8 6.4-15.06-.58-18.09-7.33-3.19-10.41 8.98-11.74 13.52-2.5 8.55-3.65 17.46-2.67 26.34.33-.04.65-.09.98-.13-4.6-11.69-9.59-23.23-15.09-34.52-1.8-3.71-4.8-5.55-9.03-4.89-3.76.59-6.88 3.14-8.23 6.68-.22.6.74.86.97.27zM347.38 226.3c-3.65 7.01-5.51 14.97-6.56 22.76-1.24 9.17-2.48 18.33-3.67 27.51-.08.64.92.63 1 0 1.12-8.63 2.33-17.25 3.46-25.88 1.07-8.17 2.81-16.52 6.64-23.89.29-.56-.58-1.07-.87-.5z"/>
    <path d="M347.94 227.04c3.47-1.2 8.05-.31 11.68-.19 3.9.13 7.81.26 11.71.39 3.46.12 7.32-.22 10.73.36 1.44.24 1.24-.08 1.54 1.31.16.77-.01 1.83-.07 2.62-.15 2.12-.53 4.26-1.19 6.28-.95 2.89-3.2 2.97-5.78 2.96-1.96-.01-3.92-.02-5.87-.03-3.92-.02-7.83-.03-11.75-.05-1.57-.01-3.7-.43-4.48 1.31-.54 1.2-.2 3.02-.21 4.28-.01 1.21-.37 3.09.59 4.09 1.29 1.36 4.48.66 6.09.65 1.98-.01 3.96-.01 5.94-.02.66 0 1.32 0 1.98-.01 1.06 0 2.98-.38 3.96-.01 2.27.86 1.49 4.02 1.49 5.91 0 1.46.1 2.98-.17 4.43-.98 5.34-7.47 3.5-11.38 3.15-4.44-.4-10.23-1.6-11.9 3.79-.49 1.57-.64 3.28-.91 4.9-.2 1.2-.68 2.64-.53 3.87.26 2.16 2.53 1.89 4.23 1.89 3.87-.01 7.62-.61 11.36-1.56 2.38-.6 5.03-1.39 7.35-.13 2.72 1.48 2.08 4.41 1.52 6.93-.47 2.1-1.07 4.17-1.82 6.18-1.15 3.06-3.49 2.66-6.11 2.55-4.09-.17-8.17-.36-12.26-.52-.64-.03-.64.97 0 1 3.21.13 6.42.27 9.64.41 2.17.09 5.39.89 7.47 0 1.78-.77 2.29-3.25 2.83-4.91.87-2.66 2.1-6 1.79-8.84-.52-4.65-5.93-4.79-9.4-3.96-3.48.83-6.86 1.63-10.46 1.8-1.41.07-4.6.65-5.16-1.16-.17-.57.33-2.14.44-2.83.18-1.07.34-2.15.53-3.22.27-1.52.51-3.25 1.69-4.38 1.26-1.22 3.09-1.28 4.73-1.23 3.15.1 6.32.54 9.46.81 2.16.19 4.7.54 6.41-1.15 1.38-1.37 1.59-3.49 1.65-5.32.05-1.44.01-2.89.02-4.34 0-1.05.25-2.55-.05-3.58-.57-1.93-2.82-1.5-4.42-1.5-3.47.01-6.93.02-10.4.03-2.16.01-4.65.62-5.19-2.3-.39-2.15-.3-5.53 2.24-6.04 1.79-.36 4.04.02 5.87.03 1.96.01 3.92.02 5.87.03 3.39.01 7.45.61 10.78-.04 2.34-.45 2.97-2.37 3.55-4.46.91-3.29 1.19-6.67.97-10.07-.02-.28-.21-.49-.5-.5-6.34-.21-12.68-.42-19.03-.63-3.09-.1-6.18-.21-9.27-.31-2.65-.09-5.49-.53-8.04.36-.63.21-.37 1.18.24.97zM387.64 225.98c3.4-.04 6.8.12 10.17.55 1.82.23 3.82.42 5.57 1.02 2.36.81 3.13 2.79 3.76 5.01 2.01 7.09 3.98 14.19 5.97 21.29.14.48.82.47.96 0 2.01-6.45 4.48-12.8 8.25-18.45 3.54-5.3 9.76-11.49 16.8-9.98.9.19 2.29.53 2.87 1.32.9 1.22.63 3.06-.02 4.23-.78 1.42-1.8 2.73-2.82 3.98-2.13 2.62-4.51 5.01-6.6 7.65-3.81 4.82-6.73 10.24-9.44 15.73-2.72 5.51-5.69 11.11-7.27 17.08-1.55 5.83-1.32 13.93-7.56 17.01-3.39 1.68-7.42.83-8.5-3.22-.84-3.15.24-6.63.9-9.71 1.3-6.11 2.58-12.41 1.77-18.69-1.67-12.97-12.37-22.59-14.33-35.47-.1-.63-1.06-.36-.96.27 2.17 14.22 14.62 24.63 14.55 39.48-.02 4.31-.81 8.57-1.69 12.78-.66 3.17-1.67 6.47-1.46 9.74.32 5.01 4.45 7.9 9.22 6.14 6-2.21 7.18-8.69 8.22-14.26 1.51-8.05 5.32-15.39 8.99-22.64 3.62-7.15 8-13.26 13.26-19.27 2.74-3.12 9.14-9.95 2.65-12.65-6.25-2.6-12.95 1.99-16.87 6.55-5.38 6.26-8.5 14.34-10.92 22.12h.96c-1.24-4.42-2.48-8.83-3.71-13.25-.62-2.21-1.24-4.42-1.86-6.62-.43-1.53-.74-3.19-1.54-4.58-1.49-2.56-4.5-2.92-7.18-3.33-4.02-.61-8.07-.87-12.14-.82-.64-.01-.64.99 0 .99zM140.53 331.9c-1.1 27.74-1.11 55.51-.77 83.27.08 6.56-.14 13.23.35 19.77.31 4.13 1.74 8.42 6.34 9.21 2.6.44 5.44-.07 8.04-.24 2.8-.19 5.59-.35 8.39-.5 5.77-.3 11.54-.51 17.31-.62 14.24-.27 28.49.12 42.72.78.64.03.64-.97 0-1-23.08-1.06-46.13-1.16-69.19.4-2.83.19-6.51 1-9.12-.45-2.86-1.59-3.37-5.3-3.53-8.25-.33-6.19-.23-12.42-.31-18.62-.16-13.12-.24-26.25-.17-39.37.08-14.79.35-29.58.93-44.36.04-.67-.96-.66-.99-.02z"/>
    <path d="M141.03 332.4c32.69 4.3 65.39-1.93 98.11-2.27 9.58-.1 19.16.34 28.65 1.65.63.09.9-.88.27-.96-32.87-4.57-65.78 1.68-98.69 2.09-9.47.12-18.94-.28-28.33-1.52-.64-.08-.64.92-.01 1.01zM325.53 330.37c33.53-2.31 67.12-.35 100.62 1.48 8.14.45 16.27.89 24.41 1.34 3.91.22 8.14.36 10.96 3.48 2.14 2.36 2.92 5.65 3.22 8.74.67 6.84-.42 13.93-.67 20.77-.3 8.05-.38 16.11-.29 24.16.22 18.13 1.36 36.24 3.35 54.26.07.63 1.07.64 1 0-1.84-16.6-2.95-33.27-3.28-49.97-.17-8.54-.14-17.09.13-25.64.23-7.36 1.26-14.87.87-22.24-.26-4.85-1.57-10.27-6.15-12.81-2.9-1.61-6.4-1.61-9.62-1.79-4.23-.23-8.46-.46-12.69-.7-17.54-.96-35.08-2.02-52.64-2.65-19.73-.71-39.5-.81-59.21.55-.65.07-.65 1.07-.01 1.02z"/>
    <path d="M392.52 443.81c5.67-.52 11.31.06 16.97.17 3.45.07 6.9.19 10.35.29 10.82.32 21.63.65 32.46.82 5.11.08 10.22.15 15.33.02.64-.02.64-1.02 0-1-19.02.5-38.09-.63-57.1-1.1-6-.15-12.02-.74-18.01-.2-.64.06-.64 1.06 0 1zM170.59 354.75c-1.01 22.75-4.51 45.31-10.43 67.29-.09.32.16.62.48.63 9.24.39 18.48.6 27.72.62 6.81.02 12.96-.41 16.82-6.74 6.37-10.46 5.56-28.62-8.03-32.77v.96c5.42-1.22 11.46-3.7 13.65-9.26 2.28-5.79-.51-12.18-4.88-16.13-5.26-4.76-12.65-7.34-19.55-8.42-5.15-.81-12.72-1.92-15.7 3.56-.31.57.56 1.07.86.5 2.98-5.48 11.81-3.73 16.77-2.7 5.77 1.19 11.76 3.41 16.32 7.24 4.53 3.81 7.73 10.33 5.03 16.14-2.28 4.89-7.83 7-12.75 8.11-.5.11-.45.83 0 .96 6.49 1.98 10.44 8.18 11.08 14.74.6 6.22-1.02 14.07-5.31 18.84-4.88 5.42-13.65 4-20.23 3.93-7.26-.08-14.52-.28-21.78-.58l.48.63c5.95-22.07 9.45-44.73 10.47-67.56.01-.63-.99-.63-1.02.01z"/>
    <path d="M180.88 364.8c-.05 5.8-.85 11.57-.9 17.38 0 .27.23.51.5.5 6.04-.12 15.29-1.33 15.5-9.18.08-3.06-1.52-6.08-3.95-7.89-3.43-2.57-7.07-3.18-10.91-1.23-.57.29-.07 1.15.5.86 3.02-1.53 5.63-1.31 8.54.37 2.13 1.23 3.78 3.02 4.48 5.43 1.5 5.18-2.42 8.79-7.09 9.92-1.5.36-4.55 1.24-6.07.71-.79-.28-.5-.85-.46-1.76.04-.97.1-1.95.16-2.92.26-4.06.65-8.11.69-12.18.01-.65-.99-.65-.99-.01zM178.3 393.24c3.73-4.26 10.66-5.03 14.74-.78 4.25 4.44 3.55 11.15-.97 15.08-2.21 1.93-5.04 3.05-7.91 3.53-1.63.28-3.27.38-4.92.36-1.37-.02-2.53.19-2.77-2.18-.05-.52.25-1.27.34-1.79.81-4.8.68-9.66 1.62-14.45.12-.63-.84-.9-.96-.27-.67 3.38-.86 6.75-1.11 10.18-.17 2.23-.79 4.43-.94 6.65-.05.76-.09 1.5.47 2.12.87.96 2.66.76 3.78.75 1.73 0 3.47-.14 5.17-.47 3.5-.69 6.86-2.29 9.23-5.01 3.99-4.58 3.75-11.54-.81-15.68-4.54-4.12-11.74-3.24-15.67 1.25-.42.49.29 1.2.71.71zM239.54 366.16c-5.26 1.85-8.57 8.57-9.63 13.7-.62 2.99-1.13 6.2-1.25 9.25-.16 4.26 1.29 8.37 2.8 12.29.23.59 1.2.34.96-.27-1.31-3.41-2.61-6.95-2.76-10.64-.12-2.94.45-6.06.95-8.95.89-5.18 3.79-12.52 9.2-14.42.6-.2.34-1.17-.27-.96z"/>
    <path d="M259.02 351.24c-12.28-4.93-26.44.15-34.34 10.37-8.55 11.07-9.8 25.95-6.24 39.13 1.08 4.01 2.58 7.9 4.36 11.65 1.22 2.56 2.25 6.47 5.44 6.97.63.1.9-.86.27-.96-2.22-.35-3.17-3.14-4.07-4.93-1.04-2.06-1.99-4.16-2.83-6.31-1.54-3.95-2.73-8.05-3.42-12.24-1.32-8.01-.72-16.33 2.3-23.91 5.93-14.87 22.49-25.14 38.26-18.8.6.23.86-.74.27-.97zM356.22 351.07c9.98-1.18 20-1.17 29.98.03.64.08.63-.92 0-1-9.97-1.21-20-1.22-29.98-.03-.63.08-.64 1.08 0 1z"/>
    <path d="M385.7 350.61c-.2 2.12-.32 4.25-.44 6.37-.08 1.39.3 5.39-.96 6-1.2.58-3.53.31-4.85.42-1.35.11-2.71.22-4.05.41-.63.09-.36 1.06.27.96 3.24-.48 6.54-.47 9.79-.95.23-.03.35-.28.37-.48.39-4.24.48-8.5.87-12.74.06-.63-.94-.63-1 .01zM391.23 351.18c3.36-.15 6.72-.31 10.09-.46 1.84-.08 3.61-.57 5.1.57 1.53 1.17 1.75 3.26 2.3 5.08 2 6.58 4.01 13.16 6.01 19.74.11.35.57.51.84.22 3.89-4.2 7.14-8.94 9.53-14.15 1.12-2.43 1.73-5.25 3.08-7.54 1.94-3.31 5.46-3.47 8.87-3.06 2.33.28 5.27 1.02 4.35 4.26-.43 1.51-1.38 2.85-2.19 4.18l-5.58 9.15c-3.31 5.43-6.71 10.82-9.77 16.39-2.8 5.12-5.32 10.44-6.96 16.05-.75 2.55-1.28 5.14-1.64 7.77-.5 3.69-.9 8.18-4.32 10.44-2.84 1.88-5.91.55-7.57-2.14-1.59-2.58-1.72-5.66-1.05-8.53 1.29-5.49 4.21-10.27 3.36-16.11-.52-3.54-1.94-6.85-3.16-10.19-1.3-3.55-2.49-7.14-3.64-10.75-2.31-7.21-4.5-14.47-7.17-21.56-.22-.6-1.19-.34-.96.27 2.78 7.39 5.04 14.95 7.46 22.46 1.21 3.75 2.46 7.48 3.84 11.16 1.36 3.63 2.89 7.39 2.83 11.34-.1 6.47-5.05 12.23-3.74 18.79.76 3.84 3.84 8.06 8.25 7.01 6.38-1.51 6.33-9.63 7.27-14.67 1.4-7.53 4.6-14.57 8.28-21.24 3.71-6.72 7.85-13.2 11.84-19.75 1.79-2.93 4.13-5.91 5.35-9.13.68-1.8.84-3.93-.9-5.16-2.03-1.42-6.19-1.47-8.54-1.11-2.79.42-4.7 2.02-5.83 4.58-1.53 3.44-2.65 6.97-4.49 10.27-2.08 3.72-4.61 7.13-7.5 10.25.28.07.56.15.84.22-2.41-7.9-4.49-16.01-7.25-23.79-.86-2.41-2.35-2.55-4.73-2.45-4.16.17-8.33.38-12.49.57-.65.05-.66 1.05-.01 1.02z"/>
  </g>
  <g>
    <path d="M107.11 63.11c5.25 25.46 2.9 51.61 1.06 77.3-1.91 26.71-2.13 53.44-2.09 80.21.08 54.36-.19 108.73.53 163.09.41 30.61 1.29 61.21 3.21 91.76.04.64 1.04.64 1 0-3.43-54.51-3.52-109.16-3.6-163.76-.04-27.55-.08-55.1-.13-82.65-.04-26.76-.22-53.55 1.5-80.27 1.84-28.56 5.32-57.61-.53-85.95-.11-.62-1.08-.36-.95.27z"/>
    <path d="M111.14 475.92c20.44.76 40.94-.35 61.37-.95 20.19-.6 40.39-1.2 60.58-1.79.64-.02.64-1.02 0-1-20.19.58-40.39 1.19-60.58 1.79-20.43.6-40.94 1.71-61.37.95-.64-.02-.64.98 0 1zM384.92 473.98c37.29 2.05 74.67 2.36 111.99.93.64-.02.64-1.02 0-1-37.32 1.43-74.7 1.12-111.99-.93-.64-.04-.64.97 0 1z"/>
    <path d="M493.65 61.21c1.09 54.13.42 108.31.36 162.44-.07 53.63-.74 107.3.62 160.92.76 29.94 1.81 59.88 1.79 89.84 0 .64 1 .64 1 0 .02-26.84-.82-53.66-1.54-80.49-.72-26.54-1.01-53.07-.98-79.62.07-54.01.13-108.02.2-162.02.04-30.36.16-60.72-.45-91.07-.01-.64-1.01-.65-1 0z"/>
    <path d="M107.59 63.48c49.86 5.81 99.85-1.59 149.78-2.02 25.35-.22 50.68 1.55 76.01 2.19 25.24.64 50.49.65 75.73.3 28.35-.4 56.7-1.26 85.03-2.24.64-.02.64-1.02 0-1-50.44 1.75-100.91 3.13-151.38 2.15-25.34-.49-50.64-2.16-75.98-2.4-25.08-.24-50.1 1.55-75.12 2.89-28.01 1.5-56.15 2.37-84.07-.88-.63-.06-.63.94 0 1.01z"/>
  </g>
</svg>
